<?xml version="1.0" encoding="utf-8"?>
<!-- Generator: Adobe Illustrator 28.3.0, SVG Export Plug-In . SVG Version: 6.00 Build 0)  -->
<svg version="1.1" id="Layer_1" xmlns="http://www.w3.org/2000/svg" xmlns:xlink="http://www.w3.org/1999/xlink" x="0px" y="0px"
	 viewBox="0 0 194.96 199.07" style="enable-background:new 0 0 194.96 199.07;" xml:space="preserve">
<style type="text/css">
	.st0{fill:#FFFFFF;}
	.st1{fill:#0083AD;}
	.st2{fill:#BC2F2C;}
</style>
<path class="st0" d="M190.82,89.1L104.54,2.92C102.59,0.98,100.03,0,97.48,0s-5.11,0.98-7.07,2.92L4.13,89.1
	C1.38,91.84,0,95.36,0,99.54c0,3.74,1.38,7.69,4.13,10.44l86.28,86.17c1.95,1.95,4.51,2.92,7.07,2.92c2.56,0,5.11-0.97,7.07-2.92
	l86.28-86.17c2.75-2.74,4.15-6.42,4.15-10.44C194.96,94.81,193.57,91.84,190.82,89.1z"/>
<g>
	<g>
		<polygon class="st1" points="97.48,189.07 183.76,102.9 11.2,102.9 		"/>
	</g>
	<g>
		<polygon class="st2" points="97.48,10 11.2,96.17 183.76,96.17 		"/>
	</g>
</g>
</svg>
